<?xml version="1.0" encoding="UTF-8"?>
<svg version="1.1" xmlns="http://www.w3.org/2000/svg" width="500" height="500">
<path d="M0 0 C5.70489878 2.18128483 10.91556547 5.43013013 16.140625 8.5625 C21.70887816 11.88315097 27.44067226 14.90715773 33.15625 17.96484375 C39.23013078 21.21870845 45.26520109 24.52697739 51.265625 27.9140625 C58.85138426 32.19510805 66.45997926 36.42176482 74.171875 40.47265625 C81.66902377 44.41229161 89.08753976 48.4136677 96.375 52.734375 C99.14320655 54.35307205 101.94307064 55.8924061 104.765625 57.4140625 C106.55808844 58.39176983 108.34976726 59.37091712 110.140625 60.3515625 C111.47673828 61.07472656 111.47673828 61.07472656 112.83984375 61.8125 C121.16103004 66.51415683 126.78653364 72.29024817 130.140625 81.3515625 C131.37293842 87.83851557 131.28395382 94.48467767 131.27001953 101.06176758 C131.27264801 102.61025894 131.27264801 102.61025894 131.27532959 104.19003296 C131.27970927 107.5837373 131.2768214 110.97738892 131.2734375 114.37109375 C131.27411222 116.75412506 131.27508364 119.1371563 131.27633667 121.52018738 C131.27780887 126.51403458 131.2756765 131.50786387 131.27099609 136.50170898 C131.26533325 142.84773362 131.26855888 149.19371563 131.27456856 155.53973866 C131.27821634 160.46537078 131.27701583 165.39099314 131.27444077 170.3166256 C131.27378132 172.65298149 131.27456488 174.98933833 131.27692032 177.32569313 C131.28564856 188.4269248 131.2366429 199.51934062 130.76513672 210.61206055 C130.72119372 211.82951698 130.72119372 211.82951698 130.67636299 213.07156849 C130.37325557 219.13169851 129.16911422 223.65694514 125.140625 228.3515625 C124.68042969 228.94453125 124.22023438 229.5375 123.74609375 230.1484375 C116.19542119 238.78870078 103.87123673 243.53821088 93.7890625 248.5 C85.31665168 252.73852154 77.08354938 257.51677292 69.015625 262.4765625 C64.70365108 265.09967997 60.24139182 267.32700525 55.71191406 269.54882812 C51.31434916 271.72306277 47.02806782 274.0490653 42.765625 276.4765625 C35.81026405 280.43497603 28.8008256 284.28682932 21.765625 288.1015625 C20.76740723 288.64441895 19.76918945 289.18727539 18.74072266 289.74658203 C-5.88069878 303.0748253 -5.88069878 303.0748253 -20.40234375 299.7734375 C-22.99625937 298.79123193 -25.39633215 297.62985056 -27.859375 296.3515625 C-28.42897949 296.0613623 -28.99858398 295.77116211 -29.58544922 295.47216797 C-34.72175895 292.84776648 -39.79136403 290.10490551 -44.859375 287.3515625 C-46.58589914 286.41919979 -48.31246281 285.48691028 -50.0390625 284.5546875 C-59.63987413 279.35558844 -69.17954953 274.05862966 -78.671875 268.6640625 C-85.86655819 264.57602445 -93.09392292 260.58107057 -100.42333984 256.74023438 C-106.41022138 253.60117451 -112.35868717 250.39424951 -118.296875 247.1640625 C-119.19672119 246.67671631 -120.09656738 246.18937012 -121.02368164 245.68725586 C-146.63588578 231.72835631 -146.63588578 231.72835631 -150.94728851 220.52443123 C-151.85244338 217.37567548 -152.12032959 214.8497986 -152.14025879 211.58566284 C-152.15167908 210.45884598 -152.16309937 209.33202911 -152.17486572 208.17106628 C-152.17710144 206.94914078 -152.17933716 205.72721527 -152.18164062 204.46826172 C-152.19157043 203.16992905 -152.20150024 201.87159637 -152.21173096 200.53392029 C-152.23787635 196.98193215 -152.25084926 193.43001944 -152.25975227 189.87795019 C-152.26563195 187.65362011 -152.27384504 185.42931023 -152.28276062 183.20499039 C-152.31008699 176.23071549 -152.3294303 169.25648725 -152.3371644 162.28216255 C-152.3461127 154.25919369 -152.38115654 146.23690855 -152.43916559 138.21414745 C-152.48255766 131.99476822 -152.50258141 125.7755802 -152.50524664 119.55605137 C-152.50733203 115.84989317 -152.51891325 112.14437862 -152.55488586 108.4383812 C-152.59431788 104.29558365 -152.58520796 100.15419581 -152.57226562 96.01123047 C-152.59069519 94.80145035 -152.60912476 93.59167023 -152.62811279 92.3452301 C-152.53155261 82.42995756 -149.62594266 73.84022946 -142.546875 66.6640625 C-137.32744426 62.55811032 -131.27521251 59.69074081 -125.3828125 56.68359375 C-121.01811333 54.45439252 -116.74475254 52.08555695 -112.484375 49.6640625 C-111.15244799 48.9099721 -109.82041986 48.15606028 -108.48828125 47.40234375 C-107.8658252 47.04994629 -107.24336914 46.69754883 -106.60205078 46.33447266 C-101.05978871 43.20850641 -95.46109179 40.18934393 -89.828125 37.23046875 C-82.32215175 33.28619626 -74.89850876 29.27431481 -67.59765625 24.95703125 C-63.07914443 22.30780392 -58.47670655 19.82346727 -53.859375 17.3515625 C-53.23933594 17.01898438 -52.61929688 16.68640625 -51.98046875 16.34375 C-41.69362612 10.83364933 -31.32041506 5.52271976 -20.859375 0.3515625 C-15.37104903 -2.39260049 -5.89359779 -1.33652627 0 0 Z M-24.88134766 22.24707031 C-27.15869997 23.51869977 -29.45144261 24.75986152 -31.74609375 26 C-35.49324516 28.02909796 -39.23351818 30.07013714 -42.96875 32.12109375 C-46.89044802 34.27437471 -50.81731459 36.41763303 -54.75 38.55078125 C-63.33374212 43.2089741 -71.88830197 47.88286025 -80.296875 52.8515625 C-86.07260143 56.23247553 -91.98232546 59.36862074 -97.90625 62.48046875 C-105.47889359 66.4602957 -112.98515893 70.48302279 -120.3359375 74.86328125 C-122.4846031 76.1305283 -124.65577429 77.30967689 -126.859375 78.4765625 C-130.31861011 80.63858444 -131.78501906 81.8118544 -133.859375 85.3515625 C-134.47383337 89.44620898 -134.42609103 93.51574029 -134.40869141 97.64990234 C-134.41891327 98.89759903 -134.42913513 100.14529572 -134.43966675 101.43080139 C-134.46268638 104.84647624 -134.46760914 108.26117966 -134.46254015 111.67686415 C-134.46039746 114.53213345 -134.47017589 117.38731367 -134.47975099 120.24256384 C-134.50192745 126.98143873 -134.50282458 133.72009066 -134.49072266 140.45898438 C-134.47864677 147.40124892 -134.50325705 154.34270238 -134.54586279 161.28482854 C-134.58114219 167.25361927 -134.59309009 173.2221524 -134.58658731 179.1910435 C-134.5829681 182.75225485 -134.58816629 186.31288781 -134.61601639 189.87400436 C-134.64593187 193.84780201 -134.62719319 197.82057428 -134.60400391 201.79443359 C-134.61929138 202.96765671 -134.63457886 204.14087982 -134.65032959 205.34965515 C-134.56862614 211.6851918 -134.01453656 215.50890094 -129.44705772 220.07637978 C-126.95268835 222.07978807 -124.39842705 223.41835386 -121.484375 224.7265625 C-120.25082257 225.30218698 -119.01912121 225.88179083 -117.7890625 226.46484375 C-117.14936523 226.76600098 -116.50966797 227.0671582 -115.85058594 227.37744141 C-112.36034455 229.08490378 -108.98777817 230.99702256 -105.609375 232.9140625 C-104.5879541 233.49172363 -104.5879541 233.49172363 -103.54589844 234.08105469 C-99.903372 236.15312934 -96.30467363 238.28170679 -92.734375 240.4765625 C-88.99276786 242.75270684 -85.16385589 244.73029769 -81.234375 246.6640625 C-71.47841373 251.46765127 -61.99826227 256.78154983 -52.734375 262.4765625 C-47.86612969 265.4380784 -42.78849383 267.90150365 -37.67578125 270.41015625 C-32.71314896 272.89082062 -27.90759438 275.65099198 -23.10107422 278.41918945 C-17.58244154 281.58112302 -13.25636284 283.07536277 -6.859375 282.3515625 C-4.20304459 281.33339731 -1.95007671 280.32633667 0.515625 278.9765625 C1.19262451 278.62223145 1.86962402 278.26790039 2.56713867 277.90283203 C4.77031169 276.74003929 6.95671972 275.55012239 9.140625 274.3515625 C9.90358887 273.93455078 10.66655273 273.51753906 11.45263672 273.08789062 C16.04603237 270.56933361 20.61945179 268.01638276 25.18554688 265.44873047 C30.80196828 262.29685762 36.46250185 259.22921423 42.1640625 256.234375 C49.672751 252.28897531 57.09897213 248.27580445 64.40234375 243.95703125 C70.23498521 240.53732278 76.20273711 237.36646276 82.1875 234.22265625 C98.65299208 226.69291134 98.65299208 226.69291134 112.140625 215.3515625 C113.02991078 211.93174991 113.26762661 208.72070002 113.27433777 205.19703674 C113.27860275 204.18072174 113.28286774 203.16440674 113.28726196 202.11729431 C113.28680878 201.0132576 113.28635559 199.90922089 113.28588867 198.77172852 C113.28924728 197.6004541 113.2926059 196.42917969 113.29606628 195.22241211 C113.30556632 191.35008687 113.30751883 187.47780491 113.30859375 183.60546875 C113.3100175 182.2692405 113.31161346 180.93301243 113.31337929 179.59678459 C113.3226229 172.6002446 113.32671531 165.60372363 113.32592773 158.60717773 C113.32532685 152.09347527 113.33588326 145.5798556 113.3516714 139.06617409 C113.36475986 133.4660219 113.3701111 127.86589673 113.36947232 122.26572937 C113.36921777 118.92438162 113.37296923 115.58316614 113.38265038 112.2418232 C113.39243919 108.51474236 113.38957658 104.78787523 113.38354492 101.06079102 C113.38916443 99.95877853 113.39478394 98.85676605 113.40057373 97.72135925 C113.40079042 88.87566243 113.40079042 88.87566243 109.38500977 81.19287109 C106.79738394 79.06996519 104.16740182 77.49796518 101.23046875 75.890625 C100.07482422 75.25382812 98.91917969 74.61703125 97.72851562 73.9609375 C96.51180372 73.29932288 95.29500645 72.63786522 94.078125 71.9765625 C92.88832747 71.32354377 91.69887128 70.66990273 90.50976562 70.015625 C87.05809899 68.11892815 83.59980702 66.23452063 80.140625 64.3515625 C78.23171612 63.30999609 76.32285808 62.26833652 74.4140625 61.2265625 C72.65627737 60.26817897 70.89846568 59.30984415 69.140625 58.3515625 C67.43617308 57.42192053 65.73174591 56.4922332 64.02734375 55.5625 C63.18284668 55.10190186 62.33834961 54.64130371 61.46826172 54.16674805 C59.64294313 53.171043 57.8177563 52.17509641 55.99267578 51.17895508 C51.08005096 48.49803743 46.16535395 45.82106901 41.24609375 43.15234375 C32.6764484 38.49905094 24.13254975 33.83518634 15.73828125 28.87109375 C12.08915598 26.73649265 8.39253264 24.69946587 4.6640625 22.70703125 C3.09156092 21.86235935 1.53138881 20.9937747 -0.0078125 20.08984375 C-9.27820736 14.86837629 -15.99876776 17.27242958 -24.88134766 22.24707031 Z " fill="#7E4F0B" transform="translate(259.859375,108.6484375)"/>
<path d="M0 0 C0.70987061 0.38784668 1.41974121 0.77569336 2.15112305 1.17529297 C3.70318628 2.02441274 5.2526551 2.87828802 6.79980469 3.73632812 C9.48557275 5.22065078 12.18278746 6.68240714 14.8828125 8.140625 C23.57563748 12.84233006 32.22743059 17.58593752 40.734375 22.6171875 C46.30571987 25.87558011 52.00291516 28.91054552 57.71484375 31.9140625 C58.86082031 32.51992187 60.00679687 33.12578125 61.1875 33.75 C62.23679687 34.29914063 63.28609375 34.84828125 64.3671875 35.4140625 C69.26047012 38.25657946 72.62330286 41.04017377 75.5 45.9375 C76.23283203 47.15373047 76.23283203 47.15373047 76.98046875 48.39453125 C79.77451901 54.1219246 80.62342966 59.47594302 80.6875 65.8125 C80.71585938 67.09511719 80.74421875 68.37773437 80.7734375 69.69921875 C80.3125 73.125 80.3125 73.125 78.671875 75.55859375 C75.65597742 77.56087012 73.78299757 77.59717561 70.1875 77.5 C69.13304687 77.48710937 68.07859375 77.47421875 66.9921875 77.4609375 C64.3125 77.125 64.3125 77.125 62.3125 75.125 C62.08256579 72.66557713 61.93842011 70.27648857 61.875 67.8125 C61.71578186 62.56857356 61.27755316 59.46583782 58.3125 55.125 C58.3125 54.465 58.3125 53.805 58.3125 53.125 C57.58812744 52.84809326 56.86375488 52.57118652 56.11743164 52.28588867 C53.44577596 51.18015947 50.96934563 49.93675284 48.43359375 48.55078125 C47.51811768 48.05143066 46.6026416 47.55208008 45.65942383 47.03759766 C44.21925903 46.24554932 44.21925903 46.24554932 42.75 45.4375 C41.76217529 44.89657715 40.77435059 44.3556543 39.7565918 43.79833984 C33.74170372 40.49373905 27.78335956 37.11630338 21.875 33.625 C16.01777258 30.19637907 10.02017867 27.02411448 4.01953125 23.85546875 C3.26373779 23.45634277 2.50794434 23.0572168 1.72924805 22.64599609 C0.23287787 21.85692266 -1.26432005 21.06941637 -2.76245117 20.28369141 C-5.70666537 18.73388929 -8.59534769 17.18205293 -11.42578125 15.4296875 C-15.52544405 13.06476975 -18.98869172 12.51314507 -23.6875 13.125 C-28.59120103 14.91460836 -33.16342765 17.46682793 -37.69628906 20.03417969 C-40.32302055 21.47314932 -43.00665211 22.79012405 -45.6875 24.125 C-45.68988835 24.69945264 -45.69227671 25.27390528 -45.69473743 25.86576557 C-45.75384685 39.83680573 -45.82956032 53.80767067 -45.92321491 67.77852345 C-45.96820042 74.53470616 -46.00760858 81.29083583 -46.03393555 88.04711914 C-46.05934339 94.56352398 -46.10022945 101.07972377 -46.15068626 107.59598351 C-46.1674111 110.08591477 -46.17889025 112.57588681 -46.18511391 115.06586647 C-46.19469388 118.54522193 -46.22268037 122.0239672 -46.25512695 125.50317383 C-46.25297432 127.05791916 -46.25297432 127.05791916 -46.2507782 128.64407349 C-46.26958542 130.06383736 -46.26958542 130.06383736 -46.28877258 131.51228333 C-46.29338155 132.33544446 -46.29799051 133.15860559 -46.30273914 134.00671101 C-46.77916114 136.62963759 -47.62841232 137.48526886 -49.6875 139.125 C-52.82391748 140.69320874 -56.25929483 140.50663039 -59.6875 140.125 C-61.0075 139.465 -62.3275 138.805 -63.6875 138.125 C-64.0175 104.135 -64.3475 70.145 -64.6875 35.125 C-85.1417174 42.75282815 -85.1417174 42.75282815 -99.6875 56.125 C-100.3475 56.125 -101.0075 56.125 -101.6875 56.125 C-101.73384725 66.86048394 -101.7693814 77.59594406 -101.79112434 88.33150768 C-101.80156003 93.31650006 -101.81571539 98.30142398 -101.83837891 103.28637695 C-101.86011483 108.09742722 -101.87207025 112.90841164 -101.87725449 117.71950722 C-101.88094888 119.5547114 -101.88816309 121.38991198 -101.89896011 123.22508812 C-101.91348494 125.79621536 -101.91547752 128.36707073 -101.91455078 130.93823242 C-101.92174133 131.69636734 -101.92893188 132.45450226 -101.93634033 133.23561096 C-101.92048592 137.30252901 -101.58551086 140.4983686 -99.6875 144.125 C-98.0334653 145.71997654 -98.0334653 145.71997654 -95.9375 146.9375 C-95.13570312 147.43894531 -94.33390625 147.94039062 -93.5078125 148.45703125 C-82.42329916 155.01255368 -71.1697125 161.24062135 -59.77587891 167.24194336 C-59.06608887 167.61585205 -58.35629883 167.98976074 -57.625 168.375 C-56.91134277 168.75084229 -56.19768555 169.12668457 -55.46240234 169.51391602 C-49.17424165 172.83905082 -42.95357497 176.27957544 -36.75170898 179.76269531 C-26.85951124 185.70118729 -26.85951124 185.70118729 -15.6875 186.125 C-11.79668363 184.49456266 -8.29016658 182.30802845 -4.6875 180.125 C-2.0307092 178.60732815 0.64158749 177.11764243 3.3125 175.625 C4.69940437 174.84407956 6.0861264 174.0628352 7.47265625 173.28125 C13.71752273 169.76937 20.00086741 166.33568479 26.34375 163.00390625 C35.72942958 158.0720379 45.02726019 153.06689896 54.015625 147.4296875 C56.3125 146.125 56.3125 146.125 58.3125 146.125 C58.621875 145.34125 58.93125 144.5575 59.25 143.75 C60.3125 141.125 60.3125 141.125 61.3125 139.125 C61.51086345 135.81453447 61.63088024 132.50602369 61.73828125 129.19140625 C62.3125 126.125 62.3125 126.125 64.04296875 124.2421875 C66.64782825 122.95993308 68.41643419 122.69191473 71.3125 122.6875 C72.158125 122.66816406 73.00375 122.64882813 73.875 122.62890625 C77.20500548 123.30664775 78.33258285 124.38011486 80.3125 127.125 C82.02593383 137.01504085 79.92221554 146.08306971 74.8515625 154.5703125 C67.34224648 164.42430947 55.01997047 169.48531406 44.3125 175.125 C43.11850586 175.75752686 43.11850586 175.75752686 41.90039062 176.40283203 C39.11096515 177.87998779 36.32076491 179.35527061 33.52099609 180.81274414 C28.22458661 183.58491547 23.0828664 186.58350743 17.9375 189.625 C-8.47348918 205.18141081 -8.47348918 205.18141081 -19.6875 205.4375 C-20.739375 205.47488281 -21.79125 205.51226562 -22.875 205.55078125 C-32.58387884 204.46649048 -40.88776081 199.6111158 -49.1875 194.75 C-51.11410709 193.6371959 -53.04118925 192.52521389 -54.96875 191.4140625 C-55.91371338 190.8675 -56.85867676 190.3209375 -57.83227539 189.7578125 C-64.40581901 185.99861116 -71.07982206 182.42231513 -77.78564453 178.90551758 C-81.42809262 176.99465835 -85.0583656 175.06099802 -88.6875 173.125 C-89.4830127 172.70105957 -90.27852539 172.27711914 -91.09814453 171.84033203 C-93.50851023 170.5494269 -95.91131247 169.2453851 -98.3125 167.9375 C-99.04605713 167.54594727 -99.77961426 167.15439453 -100.53540039 166.75097656 C-105.3416311 164.11165638 -109.93931227 161.18171404 -113.6875 157.125 C-113.6875 156.465 -113.6875 155.805 -113.6875 155.125 C-114.3475 155.125 -115.0075 155.125 -115.6875 155.125 C-116.34657418 153.9447974 -116.9889948 152.75529266 -117.625 151.5625 C-118.16447266 150.57056641 -118.16447266 150.57056641 -118.71484375 149.55859375 C-120.94574451 143.97686213 -120.83354668 137.93911856 -120.81689453 132.00585938 C-120.81864685 131.22604202 -120.82039917 130.44622467 -120.82220459 129.64277649 C-120.82657818 127.0847445 -120.82370101 124.5267826 -120.8203125 121.96875 C-120.82098683 120.17948392 -120.82195793 118.39021792 -120.82321167 116.60095215 C-120.82468256 112.85879643 -120.82255367 109.11666465 -120.81787109 105.37451172 C-120.81217419 100.58982182 -120.81545645 95.80518803 -120.82144356 91.02050018 C-120.82506561 87.32810039 -120.82390303 83.6357138 -120.82131577 79.9433136 C-120.82065105 78.1795501 -120.82145894 76.41578539 -120.82379532 74.65202332 C-120.82634887 72.18269703 -120.82244331 69.71346028 -120.81689453 67.24414062 C-120.81891876 66.52289505 -120.82094299 65.80164948 -120.82302856 65.05854797 C-120.79377896 57.99408964 -120.36059937 52.4159623 -116.4375 46.4375 C-115.85484375 45.52613281 -115.2721875 44.61476562 -114.671875 43.67578125 C-111.15709016 39.15776058 -106.81057978 36.47501613 -101.875 33.6875 C-100.99787354 33.19141235 -100.99787354 33.19141235 -100.10302734 32.68530273 C-93.00493607 28.69742059 -85.82715263 24.85284921 -78.66162109 20.98803711 C-72.74435069 17.79349127 -66.85112302 14.56413534 -61 11.25 C-54.27895086 7.44500238 -47.51723088 3.73282104 -40.6875 0.125 C-39.75808594 -0.37257812 -38.82867187 -0.87015625 -37.87109375 -1.3828125 C-25.08524895 -8.0520311 -12.39051591 -6.97628899 0 0 Z " fill="#4D3224" transform="translate(269.6875,158.875)"/>
<path d="M0 0 C2.11328125 1.12890625 2.11328125 1.12890625 4.3125 2.5625 C8.68000132 5.28164272 13.13470974 7.61837846 17.75 9.875 C37.65665926 19.65665926 37.65665926 19.65665926 42 24 C42.47898831 28.15123198 42.20167876 30.56437387 40.4375 34.375 C37.28276501 37.77240691 35.56933518 37.79404464 31 38 C28.02734375 36.98828125 28.02734375 36.98828125 24.9375 35.3125 C24.36314209 35.00723389 23.78878418 34.70196777 23.19702148 34.38745117 C21.12092568 33.27668233 19.0615514 32.13752986 17 31 C15.14915699 29.99866897 13.29754478 28.99875887 11.4453125 28 C3.58404672 23.74733385 -4.2559823 19.4631959 -12 15 C-12.76140684 7.38593156 -12.76140684 7.38593156 -10.95703125 4.1015625 C-7.29419231 -0.3024374 -5.47683102 -1.49662295 0 0 Z " fill="#4E3325" transform="translate(256,207)"/>
<path d="M0 0 C2.96763466 1.29098808 5.7874819 2.82183529 8.625 4.375 C9.44097656 4.81400635 10.25695312 5.2530127 11.09765625 5.70532227 C12.83330761 6.64166919 14.56665235 7.5823024 16.29785156 8.52685547 C19.05488178 10.02992019 21.81986231 11.51756323 24.5859375 13.00390625 C26.3911144 13.98086709 28.19581552 14.95870765 30 15.9375 C30.85416504 16.39753418 31.70833008 16.85756836 32.58837891 17.33154297 C33.38421387 17.76740723 34.18004883 18.20327148 35 18.65234375 C35.70125 19.03382568 36.4025 19.41530762 37.125 19.80834961 C39.07092681 21.04507731 40.52185286 22.23057424 42 24 C42.62347053 28.00802483 42.16880317 29.70740784 40.125 33.25 C38 36 38 36 36 38 C30.83993481 37.71335141 27.11557921 36.32485292 22.61328125 33.8671875 C22.03015671 33.55226349 21.44703217 33.23733948 20.84623718 32.91287231 C18.9960344 31.9101999 17.1544294 30.89277443 15.3125 29.875 C14.09751744 29.2152017 12.88202551 28.5563405 11.66601562 27.8984375 C-9.71529097 16.28470903 -9.71529097 16.28470903 -12 14 C-12.51611006 7.90990123 -12.04623402 4.8792822 -8 0 C-4.98955934 -1.50522033 -3.2623613 -0.79879327 0 0 Z " fill="#4F3528" transform="translate(256,256)"/>
<path d="M0 0 C-0.99730136 2.4932534 -1.65074531 3.77467439 -3.9375 5.25 C-6 6 -6 6 -9 6 C-9.20625 6.639375 -9.4125 7.27875 -9.625 7.9375 C-11 10 -11 10 -13.8125 10.6875 C-14.864375 10.790625 -15.91625 10.89375 -17 11 C-18.66804677 11.32635698 -20.33524314 11.65725594 -22 12 C-18.03555959 8.59533551 -13.91149444 6.15878467 -9.3125 3.75 C-8.63638672 3.38648437 -7.96027344 3.02296875 -7.26367188 2.6484375 C-2.26051457 0 -2.26051457 0 0 0 Z " fill="#8F6D3D" transform="translate(234,112)"/>
<path d="M0 0 C0.66 0.33 1.32 0.66 2 1 C-0.83430453 4.2542015 -2.68607774 5.5206753 -7 6 C-7.33 6.99 -7.66 7.98 -8 9 C-10.0625 10 -10.0625 10 -13 11 C-14.00933594 11.40798828 -14.00933594 11.40798828 -15.0390625 11.82421875 C-15.74804688 12.10910156 -16.45703125 12.39398438 -17.1875 12.6875 C-17.86167969 12.95949219 -18.53585938 13.23148438 -19.23046875 13.51171875 C-21 14 -21 14 -23 13 C-19.0111925 10.64709087 -15.01005583 8.31651096 -11 6 C-9.95199219 5.39414063 -8.90398437 4.78828125 -7.82421875 4.1640625 C-6.85097656 3.61492187 -5.87773437 3.06578125 -4.875 2.5 C-3.98554688 1.9946875 -3.09609375 1.489375 -2.1796875 0.96875 C-1.46039063 0.6490625 -0.74109375 0.329375 0 0 Z " fill="#8E6E43" transform="translate(206,126)"/>
<path d="M0 0 C3.84169158 -0.21952523 6.54670274 0.27335137 10 2 C10.33 2.66 10.66 3.32 11 4 C12.32 4 13.64 4 15 4 C15.45375 4.61875 15.9075 5.2375 16.375 5.875 C18.52946742 8.69238047 20.64137973 9.10436793 24 10 C22.29785156 11.13818359 22.29785156 11.13818359 20 12 C17.70996094 11.21728516 17.70996094 11.21728516 15.234375 9.7890625 C14.34492188 9.28632813 13.45546875 8.78359375 12.5390625 8.265625 C11.61867188 7.72421875 10.69828125 7.1828125 9.75 6.625 C8.81414062 6.09132812 7.87828125 5.55765625 6.9140625 5.0078125 C4.60078337 3.68593871 2.29707718 2.34977014 0 1 C0 0.67 0 0.34 0 0 Z " fill="#906F33" transform="translate(256,127)"/>
<path d="M0 0 C2.31 0 4.62 0 7 0 C2.24650855 5.57024256 -5.92814285 7.75207452 -12.96875 8.3203125 C-16.32726607 8.31348625 -19.64958568 8.22603995 -23 8 C-23 7.67 -23 7.34 -23 7 C-15.08 6.505 -15.08 6.505 -7 6 C-7 5.34 -7 4.68 -7 4 C-5.824375 3.7834375 -5.824375 3.7834375 -4.625 3.5625 C-2.03578982 3.12201075 -2.03578982 3.12201075 0 2 C0 1.34 0 0.68 0 0 Z " fill="#886E41" transform="translate(265,401)"/>
<path d="M0 0 C1.32 0 2.64 0 4 0 C4 0.66 4 1.32 4 2 C4.886875 2.103125 5.77375 2.20625 6.6875 2.3125 C10.10590025 3.0219793 12.04157792 4.22494675 15 6 C18.19395026 6.71401232 18.19395026 6.71401232 21 7 C21 8.32 21 9.64 21 11 C21.99 11.33 22.98 11.66 24 12 C23.01 12.495 23.01 12.495 22 13 C19.75341797 12.01196289 19.75341797 12.01196289 16.9921875 10.47265625 C16.00605469 9.92802734 15.01992187 9.38339844 14.00390625 8.82226562 C12.97136719 8.24154297 11.93882812 7.66082031 10.875 7.0625 C9.83472656 6.48564453 8.79445312 5.90878906 7.72265625 5.31445312 C5.14438067 3.88339191 2.57048661 2.44499106 0 1 C0 0.67 0 0.34 0 0 Z " fill="#836131" transform="translate(157,363)"/>
<path d="M0 0 C0.5775 0.495 1.155 0.99 1.75 1.5 C4.10400629 3.36980013 4.10400629 3.36980013 8 3 C11 5 11 5 11.6875 7.125 C11.790625 7.74375 11.89375 8.3625 12 9 C7.93774452 8.42176904 5.15237654 7.10882263 1.6875 4.9375 C0.80449219 4.38964844 -0.07851562 3.84179688 -0.98828125 3.27734375 C-1.65214844 2.85582031 -2.31601563 2.43429687 -3 2 C-2.01 1.34 -1.02 0.68 0 0 Z " fill="#513E32" transform="translate(165,319)"/>
<path d="M0 0 C0.99 0.33 1.98 0.66 3 1 C-1.67709379 5.1932565 -7.22510562 8.54164713 -13 11 C-13.99 10.67 -14.98 10.34 -16 10 C-15.01 9.67 -14.02 9.34 -13 9 C-13 8.34 -13 7.68 -13 7 C-12.34 7 -11.68 7 -11 7 C-11 6.01 -11 5.02 -11 4 C-10.28972656 3.79503906 -9.57945312 3.59007812 -8.84765625 3.37890625 C-7.92855469 3.10949219 -7.00945312 2.84007812 -6.0625 2.5625 C-5.14597656 2.29566406 -4.22945312 2.02882812 -3.28515625 1.75390625 C-1.0597507 1.20973949 -1.0597507 1.20973949 0 0 Z " fill="#886534" transform="translate(150,175)"/>
<path d="M0 0 C6.41908885 2.50614644 6.41908885 2.50614644 7.75390625 5.17578125 C6.42359375 4.74265625 6.42359375 4.74265625 5.06640625 4.30078125 C-4.53516252 1.55747589 -14.40173131 0.30066459 -24.24609375 2.17578125 C-17.40328504 -2.38609122 -7.87946568 -2.00068262 0 0 Z " fill="#997751" transform="translate(260.24609375,108.82421875)"/>
<path d="M0 0 C0.99 0 1.98 0 3 0 C2.63343109 7.3313783 2.63343109 7.3313783 -0.25 10.375 C-6.8116463 14.25233645 -6.8116463 14.25233645 -10.15234375 13.54296875 C-10.76207031 13.36378906 -11.37179687 13.18460937 -12 13 C-10.71186658 12.16121545 -9.41936744 11.32913217 -8.125 10.5 C-7.40570313 10.0359375 -6.68640625 9.571875 -5.9453125 9.09375 C-4 8 -4 8 -2 8 C-1.34 5.36 -0.68 2.72 0 0 Z " fill="#846436" transform="translate(372,319)"/>
<path d="M0 0 C0.66 0.33 1.32 0.66 2 1 C1.67 1.99 1.34 2.98 1 4 C-1.32809543 4.68473395 -3.66237777 5.34853151 -6 6 C-8.13513643 7.20217464 -10.01683186 8.54890136 -12 10 C-12.99 9.34 -13.98 8.68 -15 8 C-13.25048432 7.04078278 -11.50036756 6.08266183 -9.75 5.125 C-8.28820312 4.32449219 -8.28820312 4.32449219 -6.796875 3.5078125 C-5.41242188 2.76144531 -5.41242188 2.76144531 -4 2 C-3.26265625 1.58492188 -2.5253125 1.16984375 -1.765625 0.7421875 C-1.18296875 0.49726563 -0.6003125 0.25234375 0 0 Z " fill="#624F45" transform="translate(269,337)"/>
<path d="M0 0 C0 0.66 0 1.32 0 2 C-0.99 2 -1.98 2 -3 2 C-3.33 2.99 -3.66 3.98 -4 5 C-8.29 5 -12.58 5 -17 5 C-17.33 4.01 -17.66 3.02 -18 2 C-17.26394531 2.02320313 -16.52789062 2.04640625 -15.76953125 2.0703125 C-14.30580078 2.09738281 -14.30580078 2.09738281 -12.8125 2.125 C-11.36810547 2.15980469 -11.36810547 2.15980469 -9.89453125 2.1953125 C-6.33106069 1.95486239 -3.47184265 0 0 0 Z " fill="#8F7140" transform="translate(260,388)"/>
<path d="M0 0 C4.14032846 1.54385129 7.93553053 3.51028938 11.8125 5.625 C12.40998047 5.94984375 13.00746094 6.2746875 13.62304688 6.609375 C15.08337135 7.40379151 16.54187491 8.20155376 18 9 C17.01 9.66 16.02 10.32 15 11 C14.67 10.01 14.34 9.02 14 8 C11.89415562 7.19436362 11.89415562 7.19436362 9.4375 6.8125 C8.61121094 6.65394531 7.78492188 6.49539063 6.93359375 6.33203125 C6.29550781 6.22246094 5.65742188 6.11289062 5 6 C5 5.34 5 4.68 5 4 C4.360625 3.896875 3.72125 3.79375 3.0625 3.6875 C2.381875 3.460625 1.70125 3.23375 1 3 C0.67 2.01 0.34 1.02 0 0 Z " fill="#8C7144" transform="translate(142,335)"/>
<path d="M0 0 C1.58179615 -0.10867302 3.16577153 -0.18589827 4.75 -0.25 C5.63171875 -0.29640625 6.5134375 -0.3428125 7.421875 -0.390625 C10 0 10 0 12.3125 1.5625 C14.62844328 4.9077514 14.39910904 7.22405587 14.25 11.25 C14.21390625 12.51328125 14.1778125 13.7765625 14.140625 15.078125 C14.07101562 16.52445312 14.07101562 16.52445312 14 18 C13.67 18 13.34 18 13 18 C12.67 13.71 12.34 9.42 12 5 C11.01 5 10.02 5 9 5 C8.34 4.01 7.68 3.02 7 2 C3.43230448 1.26393501 3.43230448 1.26393501 0 1 C0 0.67 0 0.34 0 0 Z " fill="#998E86" transform="translate(336,282)"/>
<path d="M0 0 C0.66 0.33 1.32 0.66 2 1 C-0.05233685 3.2477975 -1.00667261 4.0022242 -4 5 C-4.474375 5.474375 -4.94875 5.94875 -5.4375 6.4375 C-8.02729884 9.02729884 -10.08221688 9.95828259 -13.75 10.125 C-14.4925 10.08375 -15.235 10.0425 -16 10 C-11.30665522 5.79217365 -5.75353924 2.54786359 0 0 Z " fill="#8E6F42" transform="translate(338,344)"/>
<path d="M0 0 C5.23518706 1.43967644 9.63026009 3.81696611 14 7 C14 7.33 14 7.66 14 8 C10.63295715 8.2295711 8.58629732 8.33943529 5.625 6.625 C5.08875 6.08875 4.5525 5.5525 4 5 C4 4.34 4 3.68 4 3 C2.68 2.67 1.36 2.34 0 2 C0 1.34 0 0.68 0 0 Z " fill="#876637" transform="translate(290,126)"/>
<path d="M0 0 C1.98 0 3.96 0 6 0 C6.66 1.65 7.32 3.3 8 5 C8.66 5 9.32 5 10 5 C9.67 7.31 9.34 9.62 9 12 C8.67 12 8.34 12 8 12 C7.773125 10.72125 7.54625 9.4425 7.3125 8.125 C6.83556592 5.92570795 6.83556592 5.92570795 6 4 C3.53744315 2.54708727 3.53744315 2.54708727 1 2 C0.67 1.34 0.34 0.68 0 0 Z " fill="#8B6C36" transform="translate(364,186)"/>
<path d="M0 0 C2.3125 -0.1875 2.3125 -0.1875 5 0 C6 1 7 2 8 3 C10.03077684 3.98628417 10.03077684 3.98628417 12.1875 4.6875 C12.90292969 4.93886719 13.61835938 5.19023437 14.35546875 5.44921875 C14.89816406 5.63097656 15.44085938 5.81273437 16 6 C16 6.99 16 7.98 16 9 C10.0942118 7.44584521 5.02261107 4.40465533 0 1 C0 0.67 0 0.34 0 0 Z " fill="#8F6F41" transform="translate(282,141)"/>
<path d="M0 0 C-2.94050157 2.27034075 -5.96058433 4.30412051 -9.125 6.25 C-10.42824219 7.06210937 -10.42824219 7.06210937 -11.7578125 7.890625 C-12.49773437 8.25671875 -13.23765625 8.6228125 -14 9 C-14.66 8.67 -15.32 8.34 -16 8 C-14.8125 6 -14.8125 6 -13 4 C-10.3125 3.75 -10.3125 3.75 -8 4 C-8 3.34 -8 2.68 -8 2 C-4.77208445 -0.1519437 -3.71599191 -0.20086443 0 0 Z " fill="#95754B" transform="translate(338,365)"/>
<path d="M0 0 C0.99 0 1.98 0 3 0 C3 0.99 3 1.98 3 3 C1.21118264 4.00508801 -0.58114696 5.00392736 -2.375 6 C-3.37273437 6.556875 -4.37046875 7.11375 -5.3984375 7.6875 C-8 9 -8 9 -10 9 C-10 8.34 -10 7.68 -10 7 C-6.7508723 4.6791945 -3.94120709 3.56302958 0 3 C0 2.01 0 1.02 0 0 Z " fill="#896733" transform="translate(293,386)"/>
<path d="M0 0 C2.97 0 5.94 0 9 0 C9.66 1.98 10.32 3.96 11 6 C6.49197399 4.74194623 3.5087188 3.09592835 0 0 Z " fill="#635148" transform="translate(303,198)"/>
<path d="M0 0 C-0.26171875 1.88671875 -0.26171875 1.88671875 -1 4 C-2.70703125 5.08203125 -2.70703125 5.08203125 -4.8125 5.8125 C-5.84310547 6.19341797 -5.84310547 6.19341797 -6.89453125 6.58203125 C-9.26868457 7.05333812 -10.72314894 6.75212833 -13 6 C-11.21118264 4.99491199 -9.41885304 3.99607264 -7.625 3 C-6.62726563 2.443125 -5.62953125 1.88625 -4.6015625 1.3125 C-2 0 -2 0 0 0 Z " fill="#8E6B41" transform="translate(181,141)"/>
<path d="M0 0 C1.98 0 3.96 0 6 0 C6 0.66 6 1.32 6 2 C6.928125 2.2165625 6.928125 2.2165625 7.875 2.4375 C10 3 10 3 12 4 C11.67 4.99 11.34 5.98 11 7 C7.37 5.02 3.74 3.04 0 1 C0 0.67 0 0.34 0 0 Z " fill="#856330" transform="translate(208,391)"/>
<path d="M0 0 C5.75 1.625 5.75 1.625 8 5 C7.34 5.66 6.68 6.32 6 7 C3.53199953 5.84826645 1.95216435 4.95216435 0 3 C0 2.01 0 1.02 0 0 Z " fill="#5F4C42" transform="translate(256,208)"/>
<path d="M0 0 C0.78375 0.04125 1.5675 0.0825 2.375 0.125 C2.705 0.785 3.035 1.445 3.375 2.125 C-3.375 6.125 -3.375 6.125 -5.625 6.125 C-4.86443086 2.32215429 -4.27658992 0.20364714 0 0 Z " fill="#554036" transform="translate(184.625,200.875)"/>
<path d="M0 0 C2.97 0.495 2.97 0.495 6 1 C6 1.66 6 2.32 6 3 C7.65 3.33 9.3 3.66 11 4 C11.33 4.99 11.66 5.98 12 7 C7.69235185 5.43358249 3.93828536 3.31663844 0 1 C0 0.67 0 0.34 0 0 Z " fill="#987D56" transform="translate(192,382)"/>
<path d="M0 0 C-2.87164566 2.70272533 -4.30991841 3.94791837 -8.3125 4.25 C-9.199375 4.1675 -10.08625 4.085 -11 4 C-11 3.34 -11 2.68 -11 2 C-9.54494642 1.47007308 -8.08581873 0.9513211 -6.625 0.4375 C-5.81289063 0.14746094 -5.00078125 -0.14257812 -4.1640625 -0.44140625 C-2 -1 -2 -1 0 0 Z " fill="#825823" transform="translate(289,375)"/>
<path d="M0 0 C2.475 0.99 2.475 0.99 5 2 C4.01 2.66 3.02 3.32 2 4 C0.7625 4.8353125 0.7625 4.8353125 -0.5 5.6875 C-1.325 6.120625 -2.15 6.55375 -3 7 C-3.99 6.67 -4.98 6.34 -6 6 C-4.625 4.5 -4.625 4.5 -3 3 C-2.34 3 -1.68 3 -1 3 C-0.67 2.01 -0.34 1.02 0 0 Z " fill="#645248" transform="translate(241,169)"/>
<path d="M0 0 C-0.33 1.32 -0.66 2.64 -1 4 C-4.375 4.125 -4.375 4.125 -8 4 C-8.66 3.34 -9.32 2.68 -10 2 C-3.375 -1.125 -3.375 -1.125 0 0 Z " fill="#7E5416" transform="translate(214,387)"/>
<path d="M0 0 C1.258125 0.12375 2.51625 0.2475 3.8125 0.375 C4.87404297 0.47941406 4.87404297 0.47941406 5.95703125 0.5859375 C8 1 8 1 11 3 C10.01 4.485 10.01 4.485 9 6 C6.03 4.35 3.06 2.7 0 1 C0 0.67 0 0.34 0 0 Z " fill="#63544A" transform="translate(268,234)"/>
<path d="M0 0 C3.35595828 0.59927826 5.37801226 1.84622436 8 4 C4.67465243 5.10844919 2.37817425 4.84454356 -1 4 C-0.67 2.68 -0.34 1.36 0 0 Z " fill="#5E4A41" transform="translate(285,224)"/>
<path d="M0 0 C0.66 0.33 1.32 0.66 2 1 C-4.28571429 6.42857143 -4.28571429 6.42857143 -8 8 C-8.99 7.34 -9.98 6.68 -11 6 C-9.21385682 4.96953278 -7.42089982 3.95086764 -5.625 2.9375 C-4.62726563 2.36902344 -3.62953125 1.80054688 -2.6015625 1.21484375 C-1.74304688 0.81394531 -0.88453125 0.41304687 0 0 Z " fill="#73615A" transform="translate(201,174)"/>
<path d="M0 0 C1.65 0.33 3.3 0.66 5 1 C4.67 2.32 4.34 3.64 4 5 C2.68 5.33 1.36 5.66 0 6 C-1 3 -1 3 0 0 Z " fill="#825919" transform="translate(353,161)"/>
<path d="M0 0 C-0.99766109 2.49415272 -1.68616685 3.78740335 -3.9375 5.3125 C-6 6 -6 6 -9 5 C-6.45523312 2.20075644 -3.92372883 0 0 0 Z " fill="#866432" transform="translate(234,112)"/>
<path d="M0 0 C3.3 0 6.6 0 10 0 C10 1.65 10 3.3 10 5 C5.84585747 3.77263971 3.56311466 2.672336 0 0 Z " fill="#84612D" transform="translate(230,403)"/>
<path d="M0 0 C0.56203125 0.37898438 1.1240625 0.75796875 1.703125 1.1484375 C0.2934903 1.85024281 -1.12495141 2.53437708 -2.546875 3.2109375 C-3.33578125 3.59378906 -4.1246875 3.97664063 -4.9375 4.37109375 C-7.55681022 5.23407841 -8.74542676 5.07889683 -11.296875 4.1484375 C-9.89233857 3.25409593 -8.47265631 2.38350558 -7.046875 1.5234375 C-6.25796875 1.03617187 -5.4690625 0.54890625 -4.65625 0.046875 C-2.296875 -0.8515625 -2.296875 -0.8515625 0 0 Z " fill="#8C693B" transform="translate(351.296875,338.8515625)"/>
<path d="M0 0 C-2.88138209 2.24107496 -5.74679343 4.33168894 -9 6 C-9.99 5.67 -10.98 5.34 -12 5 C-11.34 4.34 -10.68 3.68 -10 3 C-9.01 3 -8.02 3 -7 3 C-7 2.34 -7 1.68 -7 1 C-4.53721199 -0.231394 -2.7204945 -0.07159196 0 0 Z " fill="#695C55" transform="translate(303,339)"/>
<path d="M0 0 C2.88437779 1.29299694 4.87219421 2.65941363 7 5 C6.01 5.33 5.02 5.66 4 6 C0.8125 4.0625 0.8125 4.0625 -2 2 C-1.34 1.34 -0.68 0.68 0 0 Z " fill="#544339" transform="translate(181,328)"/>
<path d="M0 0 C0.33 0.99 0.66 1.98 1 3 C-0.28965176 4.37562854 -1.62689293 5.70766393 -3 7 C-3.66 7 -4.32 7 -5 7 C-5 6.34 -5 5.68 -5 5 C-5.66 4.67 -6.32 4.34 -7 4 C-4.69 2.68 -2.38 1.36 0 0 Z " fill="#5C4C42" transform="translate(189,181)"/>
<path d="M0 0 C2.31 0.33 4.62 0.66 7 1 C7.33 1.99 7.66 2.98 8 4 C10.01508358 4.73323796 10.01508358 4.73323796 12 5 C12 5.66 12 6.32 12 7 C7.69235185 5.43358249 3.93828536 3.31663844 0 1 C0 0.67 0 0.34 0 0 Z " fill="#896637" transform="translate(322,163)"/>
<path d="M0 0 C-0.25 1.875 -0.25 1.875 -1 4 C-2.9375 5.3125 -2.9375 5.3125 -5 6 C-5.66 5.67 -6.32 5.34 -7 5 C-6 2 -6 2 -4.0625 0.8125 C-2 0 -2 0 0 0 Z " fill="#8C6534" transform="translate(150,158)"/>
<path d="M0 0 C2.64 0.33 5.28 0.66 8 1 C2.85714286 5.42857143 2.85714286 5.42857143 -1 6 C-1 5.34 -1 4.68 -1 4 C-0.34 3.67 0.32 3.34 1 3 C0.67 2.01 0.34 1.02 0 0 Z " fill="#8E6E38" transform="translate(183,154)"/>
<path d="M0 0 C0 0.66 0 1.32 0 2 C-3.96 3.98 -3.96 3.98 -8 6 C-8.99 5.34 -9.98 4.68 -11 4 C-9.73308493 3.32591692 -8.46129251 2.66099503 -7.1875 2 C-6.47980469 1.62875 -5.77210938 1.2575 -5.04296875 0.875 C-3 0 -3 0 0 0 Z " fill="#57463C" transform="translate(332,322)"/>
<path d="M0 0 C3 1 3 1 4.1875 3.0625 C4.455625 3.701875 4.72375 4.34125 5 5 C4.01 5.33 3.02 5.66 2 6 C1.67 6.66 1.34 7.32 1 8 C0.26919734 6.02253397 -0.39421747 4.01927511 -1 2 C-0.67 1.34 -0.34 0.68 0 0 Z " fill="#5D473E" transform="translate(339,199)"/>
<path d="M0 0 C1.32 0.66 2.64 1.32 4 2 C1.03 3.32 -1.94 4.64 -5 6 C-5.66 5.34 -6.32 4.68 -7 4 C-1.921875 0.6796875 -1.921875 0.6796875 0 0 Z " fill="#5C4A41" transform="translate(167,193)"/>
<path d="M0 0 C0.66 0.33 1.32 0.66 2 1 C1.67 3.31 1.34 5.62 1 8 C-0.65 6.35 -2.3 4.7 -4 3 C-2.68 2.01 -1.36 1.02 0 0 Z " fill="#614C42" transform="translate(230,158)"/>
<path d="M0 0 C4.12751449 0.60698743 7.3321148 2.03810791 11 4 C10.34 4.66 9.68 5.32 9 6 C6.03 4.35 3.06 2.7 0 1 C0 0.67 0 0.34 0 0 Z " fill="#917243" transform="translate(181,376)"/>
<path d="M0 0 C1.32 0 2.64 0 4 0 C4 0.66 4 1.32 4 2 C6.97 2.495 6.97 2.495 10 3 C10.33 3.99 10.66 4.98 11 6 C6.49197399 4.74194623 3.5087188 3.09592835 0 0 Z " fill="#987953" transform="translate(157,363)"/>
<path d="M0 0 C0.66 0 1.32 0 2 0 C2 0.66 2 1.32 2 2 C2.99 1.67 3.98 1.34 5 1 C5.66 1.99 6.32 2.98 7 4 C5.3125 4.6875 5.3125 4.6875 3 5 C0.25 3.5625 0.25 3.5625 -2 2 C-1.34 1.34 -0.68 0.68 0 0 Z " fill="#635349" transform="translate(229,355)"/>
<path d="M0 0 C0.66 0.33 1.32 0.66 2 1 C0.54728878 4.75283733 0.54728878 4.75283733 -1.9375 5.875 C-4 6 -4 6 -7 4 C-1.7265625 0.77734375 -1.7265625 0.77734375 0 0 Z " fill="#67584E" transform="translate(299,320)"/>
<path d="M0 0 C3.1875 1.9375 3.1875 1.9375 6 4 C5.67 4.66 5.34 5.32 5 6 C1.62496331 4.8141763 -0.64722731 3.72426311 -3 1 C-2.01 0.67 -1.02 0.34 0 0 Z " fill="#67594E" transform="translate(165,319)"/>
<path d="M0 0 C1.32 0 2.64 0 4 0 C4 0.66 4 1.32 4 2 C4.66 2 5.32 2 6 2 C5.67 2.99 5.34 3.98 5 5 C2.03824877 4.38722388 0.61941217 3.74627478 -2 2 C-1.34 1.34 -0.68 0.68 0 0 Z " fill="#472B1A" transform="translate(181,315)"/>
<path d="M0 0 C2.97 0 5.94 0 9 0 C9.33 0.66 9.66 1.32 10 2 C6.78548731 3.60725635 3.56387464 3.05748185 0 3 C0 2.01 0 1.02 0 0 Z " fill="#574841" transform="translate(210,296)"/>
<path d="M0 0 C2.91517292 1.07401108 4.77810176 1.77810176 7 4 C6.67 4.66 6.34 5.32 6 6 C4.35 5.67 2.7 5.34 1 5 C0.67 3.35 0.34 1.7 0 0 Z " fill="#5D4C45" transform="translate(271,216)"/>
<path d="M0 0 C0.99 0.495 0.99 0.495 2 1 C2.73075648 3.3140622 3.40138258 5.64828869 4 8 C3.01 8.66 2.02 9.32 1 10 C0.22157062 6.59437148 -0.09978121 3.49234244 0 0 Z " fill="#7F5B28" transform="translate(386,184)"/>
<path d="M0 0 C3.85645121 -0.22036864 6.49223216 0.39644899 10 2 C10 2.99 10 3.98 10 5 C6.33118845 4.29445932 3.29549466 2.72264494 0 1 C0 0.67 0 0.34 0 0 Z " fill="#7C5B2D" transform="translate(256,127)"/>
<path d="M0 0 C2.31 0 4.62 0 7 0 C4.64722731 2.72426311 2.37503669 3.8141763 -1 5 C-1.33 4.01 -1.66 3.02 -2 2 C-1.34 2 -0.68 2 0 2 C0 1.34 0 0.68 0 0 Z " fill="#8C6A36" transform="translate(265,401)"/>
<path d="M0 0 C-5.14285714 4.42857143 -5.14285714 4.42857143 -9 5 C-8.6875 3.0625 -8.6875 3.0625 -8 1 C-5.07175348 0.02391783 -3.04386724 -0.08226668 0 0 Z " fill="#957045" transform="translate(347,360)"/>
<path d="M0 0 C3 1 3 1 5 3 C6.64991582 3.70710678 8.31562256 4.37943989 10 5 C10 5.33 10 5.66 10 6 C3.375 5.25 3.375 5.25 0 3 C0 2.01 0 1.02 0 0 Z " fill="#78655E" transform="translate(282,288)"/>
<path d="M0 0 C1.0828125 0.37125 1.0828125 0.37125 2.1875 0.75 C-0.07435454 3.01185454 -1.78233561 3.78921617 -4.8125 4.75 C-5.8025 4.42 -6.7925 4.09 -7.8125 3.75 C-3.50480769 -0.31153846 -3.50480769 -0.31153846 0 0 Z " fill="#685B53" transform="translate(253.8125,206.25)"/>
<path d="M0 0 C-5.14285714 4.42857143 -5.14285714 4.42857143 -9 5 C-9 4.01 -9 3.02 -9 2 C-3.375 -1.125 -3.375 -1.125 0 0 Z " fill="#927049" transform="translate(153,176)"/>
<path d="M0 0 C3.0831351 1.19899698 6.06279492 2.47700477 9 4 C9 4.33 9 4.66 9 5 C7.02 5 5.04 5 3 5 C3 4.34 3 3.68 3 3 C2.01 2.67 1.02 2.34 0 2 C0 1.34 0 0.68 0 0 Z " fill="#9F8255" transform="translate(274,117)"/>
<path d="M0 0 C2.88437779 1.29299694 4.87219421 2.65941363 7 5 C6.01 5 5.02 5 4 5 C3.67 5.66 3.34 6.32 3 7 C0 2.25 0 2.25 0 0 Z " fill="#503D31" transform="translate(150,304)"/>
<path d="M0 0 C-0.804375 0.61875 -1.60875 1.2375 -2.4375 1.875 C-5.03874519 3.74164041 -5.03874519 3.74164041 -6 6 C-6.66 6 -7.32 6 -8 6 C-7.625 3.5625 -7.625 3.5625 -7 1 C-4.53721199 -0.231394 -2.7204945 -0.07159196 0 0 Z " fill="#6C5F59" transform="translate(176,209)"/>
<path d="M0 0 C-0.33 0.99 -0.66 1.98 -1 3 C-5.455 3.495 -5.455 3.495 -10 4 C-7.02096266 1.02096266 -4.19714671 0 0 0 Z " fill="#6D5952" transform="translate(242,154)"/>
<path d="M0 0 C2 0 2 0 3.625 1.5 C4.07875 1.995 4.5325 2.49 5 3 C4.67 3.99 4.34 4.98 4 6 C1.525 5.01 1.525 5.01 -1 4 C-0.67 2.68 -0.34 1.36 0 0 Z " fill="#472B1D" transform="translate(282,272)"/>
<path d="M0 0 C-2.55991624 2.01136276 -5.04590299 3.62845496 -8 5 C-8.33 4.01 -8.66 3.02 -9 2 C-5.5647952 -0.29013653 -4.014669 -0.17842973 0 0 Z " fill="#876637" transform="translate(162,171)"/>
<path d="M0 0 C2.475 0.99 2.475 0.99 5 2 C5 2.99 5 3.98 5 5 C4.34 5 3.68 5 3 5 C2.67 5.66 2.34 6.32 2 7 C1.34 4.69 0.68 2.38 0 0 Z " fill="#906736" transform="translate(360,164)"/>
<path d="M0 0 C0.33 1.32 0.66 2.64 1 4 C-0.65 4.33 -2.3 4.66 -4 5 C-3.67 4.34 -3.34 3.68 -3 3 C-3.66 2.34 -4.32 1.68 -5 1 C-3 0 -3 0 0 0 Z " fill="#472B1C" transform="translate(190,329)"/>
<path d="M0 0 C3.48539917 0.64544429 6.02819057 2.10134397 9 4 C7.02 4.99 7.02 4.99 5 6 C3.5 4.625 3.5 4.625 2 3 C2 2.34 2 1.68 2 1 C1.34 0.67 0.68 0.34 0 0 Z " fill="#5C4B44" transform="translate(154,313)"/>
<path d="M0 0 C0.66 0.33 1.32 0.66 2 1 C-1.32307692 4.93846154 -1.32307692 4.93846154 -4.75 5.25 C-5.4925 5.1675 -6.235 5.085 -7 5 C-4.702779 3.25728062 -2.40133271 1.60088848 0 0 Z " fill="#71635B" transform="translate(321,308)"/>
<path d="M0 0 C-0.33 1.65 -0.66 3.3 -1 5 C-2.32 5 -3.64 5 -5 5 C-5 3.68 -5 2.36 -5 1 C-2 0 -2 0 0 0 Z " fill="#472B1C" transform="translate(325,202)"/>
<path d="M0 0 C2.91517292 1.07401108 4.77810176 1.77810176 7 4 C4.13822943 5.43088528 2.06624227 4.59991697 -1 4 C-0.67 2.68 -0.34 1.36 0 0 Z " fill="#6B5951" transform="translate(268,159)"/>
<path d="M0 0 C2.64 0 5.28 0 8 0 C7.01 1.485 7.01 1.485 6 3 C3.375 3.1875 3.375 3.1875 1 3 C0.67 2.01 0.34 1.02 0 0 Z " fill="#614C47" transform="translate(245,153)"/>
<path d="M0 0 C5.75 1.75 5.75 1.75 8 4 C6.25 4.6875 6.25 4.6875 4 5 C1.75 3.6875 1.75 3.6875 0 2 C0 1.34 0 0.68 0 0 Z " fill="#8D6D3A" transform="translate(308,136)"/>
<path d="M0 0 C0 0.99 0 1.98 0 3 C-3 5 -3 5 -5.1875 4.625 C-5.785625 4.41875 -6.38375 4.2125 -7 4 C-4.69 2.68 -2.38 1.36 0 0 Z " fill="#937651" transform="translate(275,379)"/>
<path d="M0 0 C2.31 0 4.62 0 7 0 C7.33 1.32 7.66 2.64 8 4 C5.36 3.34 2.72 2.68 0 2 C0 1.34 0 0.68 0 0 Z " fill="#58453D" transform="translate(252,170)"/>
<path d="M0 0 C2.96175123 0.61277612 4.38058783 1.25372522 7 3 C7 3.66 7 4.32 7 5 C4.0625 4.1875 4.0625 4.1875 1 3 C0.67 2.01 0.34 1.02 0 0 Z " fill="#7D5F2F" transform="translate(313,157)"/>
<path d="M0 0 C4.55384615 -0.36923077 4.55384615 -0.36923077 6.8125 1.5 C7.204375 1.995 7.59625 2.49 8 3 C7.67 3.66 7.34 4.32 7 5 C3.535 3.02 3.535 3.02 0 1 C0 0.67 0 0.34 0 0 Z " fill="#8E6935" transform="translate(282,141)"/>
<path d="M0 0 C-2.93828597 2.50298434 -5.17902761 3.46930939 -9 4 C-9 3.34 -9 2.68 -9 2 C-5.86501708 0.14223235 -3.62528568 -0.20140476 0 0 Z " fill="#846030" transform="translate(224,137)"/>
</svg>
